HIERARCHY
ROOT Hips
{
	OFFSET 52.415401 14.501390 59.311802
	CHANNELS 6 Xposition Yposition Zposition Xrotation Yrotation Zrotation
	JOINT spine
	{
		OFFSET 0.000000 -0.429886 7.475597
		CHANNELS 3 Xrotation Yrotation Zrotation
		JOINT spine1
		{
			OFFSET 0.000000 -0.000002 9.923012
			CHANNELS 3 Xrotation Yrotation Zrotation
			JOINT spine2
			{
				OFFSET 0.000000 -0.000002 9.508041
				CHANNELS 3 Xrotation Yrotation Zrotation
				JOINT Neck
				{
					OFFSET 0.000000 -1.163844 24.411102
					CHANNELS 3 Xrotation Yrotation Zrotation
					JOINT Head
					{
						OFFSET 0.000000 -0.000001 7.375229
						CHANNELS 3 Xrotation Yrotation Zrotation
						End Site
						{
							OFFSET 0.000000 5.887407 17.852196
						}
					}
				}
				JOINT RightShoulder
				{
					OFFSET -4.003559 0.557467 10.267899
					CHANNELS 3 Xrotation Yrotation Zrotation
					JOINT RightArm
					{
						OFFSET 0.000000 -0.000003 13.467300
						CHANNELS 3 Xrotation Yrotation Zrotation
						JOINT RightArmRoll
						{
							OFFSET 0.000000 -0.000001 6.798569
							CHANNELS 3 Xrotation Yrotation Zrotation
							JOINT RightForeArm
							{
								OFFSET 0.000000 -0.000003 19.801796
								CHANNELS 3 Xrotation Yrotation Zrotation
								JOINT RightForeArmRoll
								{
									OFFSET 0.000000 -0.000002 7.629044
									CHANNELS 3 Xrotation Yrotation Zrotation
									JOINT RightHand
									{
										OFFSET 0.000000 -0.000002 15.309799
										CHANNELS 3 Xrotation Yrotation Zrotation
										End Site
										{
											OFFSET 0.000000 0.000000 0.100006
										}
									}
								}
							}
						}
					}
				}
				JOINT LeftShoulder
				{
					OFFSET 4.003559 0.557467 10.267899
					CHANNELS 3 Xrotation Yrotation Zrotation
					JOINT LeftArm
					{
						OFFSET 0.000000 -0.000003 13.467300
						CHANNELS 3 Xrotation Yrotation Zrotation
						JOINT LeftArmRoll
						{
							OFFSET 0.000000 -0.000001 6.798569
							CHANNELS 3 Xrotation Yrotation Zrotation
							JOINT LeftForeArm
							{
								OFFSET 0.000000 -0.000003 19.801796
								CHANNELS 3 Xrotation Yrotation Zrotation
								JOINT LeftForeArmRoll
								{
									OFFSET 0.000000 -0.000002 7.629044
									CHANNELS 3 Xrotation Yrotation Zrotation
									JOINT LeftHand
									{
										OFFSET 0.000000 -0.000002 15.309799
										CHANNELS 3 Xrotation Yrotation Zrotation
										End Site
										{
											OFFSET 0.000000 0.000000 0.100006
										}
									}
								}
							}
						}
					}
				}
			}
		}
	}
	JOINT RightUpLeg
	{
		OFFSET -6.626091 1.019270 -1.215050
		CHANNELS 3 Xrotation Yrotation Zrotation
		JOINT RightUpLegRoll
		{
			OFFSET 0.000000 -0.000003 17.951694
			CHANNELS 3 Xrotation Yrotation Zrotation
			JOINT RightLeg
			{
				OFFSET 0.000000 0.000004 -22.230396
				CHANNELS 3 Xrotation Yrotation Zrotation
				JOINT RightLegRoll
				{
					OFFSET 0.000000 -0.000004 22.303196
					CHANNELS 3 Xrotation Yrotation Zrotation
					JOINT RightFoot
					{
						OFFSET 0.000000 -0.000003 18.563599
						CHANNELS 3 Xrotation Yrotation Zrotation
						JOINT RightToeBase
						{
							OFFSET 0.000000 -0.000003 15.518303
							CHANNELS 3 Xrotation Yrotation Zrotation
							End Site
							{
								OFFSET 0.006577 0.866261 7.515381
							}
						}
					}
				}
			}
		}
	}
	JOINT LeftUpLeg
	{
		OFFSET 6.626091 1.019270 -1.215050
		CHANNELS 3 Xrotation Yrotation Zrotation
		JOINT LeftUpLegRoll
		{
			OFFSET 0.000000 -0.000003 17.951794
			CHANNELS 3 Xrotation Yrotation Zrotation
			JOINT LeftLeg
			{
				OFFSET 0.000000 -0.000004 22.230301
				CHANNELS 3 Xrotation Yrotation Zrotation
				JOINT LeftLegRoll
				{
					OFFSET 0.000000 -0.000004 22.509300
					CHANNELS 3 Xrotation Yrotation Zrotation
					JOINT LeftFoot
					{
						OFFSET 0.000000 -0.000003 18.357498
						CHANNELS 3 Xrotation Yrotation Zrotation
						JOINT LeftToeBase
						{
							OFFSET 0.000000 -0.000002 15.518295
							CHANNELS 3 Xrotation Yrotation Zrotation
							End Site
							{
								OFFSET -0.029476 0.866261 7.515396
							}
						}
					}
				}
			}
		}
	}
}
MOTION
Frames: 12
Frame Time: 0.041667
53.398296 15.265094 58.200703 -13.099755 0.277015 2.993201 3.052142 -0.060960 -0.648861 10.108242 -0.162419 -1.300835 11.753158 -0.177990 -1.298808 5.088869 11.825328 -1.970721 2.737949 -14.210822 -1.532259 -6.785761 -61.277274 -8.197756 -59.620414 -132.380240 -52.406276 0.000000 -0.000024 0.000002 12.056255 -10.147446 -0.007801 0.000003 -0.000001 -3.006700 -5.000186 -7.999430 0.000079 -18.067515 73.022959 21.417313 -79.910850 126.098310 59.802281 -0.000009 -0.000005 -0.000001 1.110387 0.396930 0.840903 0.000002 -0.000013 3.008119 -5.000156 8.000119 -0.000016 -72.201479 178.935069 11.094831 -179.999991 0.000005 -2.127995 90.796041 5.197655 -1.591534 -0.000002 -0.000001 2.626370 65.642523 7.307239 1.359988 25.456935 -7.358369 -0.000001 -70.627551 178.875346 -2.841106 -0.000005 -0.000004 -1.758270 -84.303194 -5.649844 -0.550266 -0.000002 -0.000000 -1.849911 61.520183 -7.495558 -1.257867 26.852322 7.317574 -2.075838 
53.402096 15.281288 58.188408 -13.174141 0.265519 3.002830 3.051532 -0.063738 -0.652226 10.106644 -0.168257 -1.308509 11.751563 -0.183919 -1.306410 5.210958 11.840658 -1.990327 2.736482 -14.190058 -1.543890 -6.794996 -61.263163 -8.207400 -59.561913 -132.345010 -52.335816 0.000001 -0.000023 0.000001 12.054439 -10.142516 -0.008618 0.000001 -0.000001 -3.006701 -5.000184 -7.999430 0.000079 -17.958014 73.052398 21.297568 -79.914053 126.057247 59.777761 -0.000011 -0.000003 0.000000 1.071867 0.382988 0.840911 0.000004 -0.000014 3.008118 -5.000156 8.000118 -0.000018 -72.171249 178.929332 11.069035 -179.999991 0.000005 -2.127996 90.776998 5.204474 -1.578808 -0.000002 -0.000001 2.626880 65.642920 7.306815 1.360570 25.456928 -7.358367 -0.000001 -70.573517 178.892367 -2.828860 -0.000005 -0.000004 -1.759490 -84.301692 -5.647906 -0.555289 -0.000002 -0.000000 -1.848181 61.488682 -7.496149 -1.258314 26.855754 7.317515 -2.080655 
53.398396 15.298592 58.175407 -13.247534 0.254055 3.012220 3.050784 -0.066583 -0.655787 10.104748 -0.174247 -1.316487 11.749769 -0.190004 -1.314310 5.331145 11.856856 -2.009191 2.735546 -14.170187 -1.554884 -6.804783 -61.247303 -8.217552 -59.501507 -132.312198 -52.263918 0.000001 -0.000024 0.000002 12.052121 -10.137608 -0.009486 0.000002 -0.000001 -3.006700 -5.000188 -7.999431 0.000079 -17.851963 73.082273 21.181672 -79.917407 126.015761 59.753282 -0.000008 -0.000003 0.000002 1.035070 0.369311 0.840921 0.000002 -0.000013 3.008120 -5.000155 8.000118 -0.000021 -72.140274 178.924469 11.043332 -179.999991 0.000005 -2.127995 90.758222 5.211078 -1.566104 -0.000002 -0.000000 2.627200 65.643002 7.306348 1.361065 25.456935 -7.358367 -0.000001 -70.519880 178.909811 -2.818090 -0.000005 -0.000004 -1.760691 -84.300544 -5.645743 -0.560139 -0.000002 0.000000 -1.846550 61.458630 -7.496684 -1.258945 26.858887 7.317469 -2.085059 
53.398895 15.311492 58.169403 -13.319923 0.242576 3.021401 3.049886 -0.069505 -0.659575 10.102651 -0.180407 -1.324786 11.747574 -0.196263 -1.322536 5.449320 11.874432 -2.027208 2.735097 -14.151810 -1.565124 -6.815102 -61.229415 -8.228168 -59.438902 -132.281585 -52.190575 0.000001 -0.000024 0.000001 12.049383 -10.132521 -0.010426 0.000003 -0.000001 -3.006701 -5.000182 -7.999431 0.000079 -17.750051 73.112940 21.070350 -79.921799 125.973919 59.729492 -0.000010 -0.000004 0.000001 0.999697 0.355687 0.840927 0.000003 -0.000013 3.008120 -5.000158 8.000119 -0.000018 -72.108595 178.919838 11.019861 -179.999991 0.000005 -2.127996 90.739773 5.217448 -1.553502 -0.000003 -0.000000 2.627300 65.642558 7.305894 1.361794 25.456931 -7.358367 -0.000000 -70.466782 178.927078 -2.807245 -0.000005 -0.000005 -1.761860 -84.299636 -5.643405 -0.564712 -0.000002 0.000000 -1.845029 61.430230 -7.497167 -1.259450 26.861708 7.317414 -2.089023 
53.399395 15.328691 58.156803 -13.391113 0.231034 3.030392 3.048815 -0.072513 -0.663622 10.100153 -0.186751 -1.333444 11.745075 -0.202711 -1.331124 5.565396 11.893785 -2.044271 2.735083 -14.135427 -1.574458 -6.825838 -61.209000 -8.239089 -59.373079 -132.253609 -52.114688 0.000001 -0.000023 0.000001 12.046448 -10.127535 -0.011361 0.000004 -0.000001 -3.006700 -5.000184 -7.999430 0.000079 -17.652824 73.144790 20.964192 -79.927891 125.931982 59.706768 -0.000010 -0.000004 0.000001 0.965448 0.341900 0.840915 0.000001 -0.000013 3.008118 -5.000156 8.000119 -0.000018 -72.075851 178.916068 10.996945 -179.999991 0.000005 -2.127995 90.721673 5.223603 -1.541118 -0.000002 -0.000001 2.627160 65.641676 7.305382 1.362643 25.456933 -7.358368 0.000001 -70.414401 178.944481 -2.797574 -0.000005 -0.000005 -1.763000 -84.299021 -5.640793 -0.569112 -0.000002 0.000000 -1.843590 61.403476 -7.497650 -1.260039 26.864124 7.317353 -2.092501 
53.400997 15.337589 58.143608 -13.461198 0.219383 3.039222 3.047546 -0.075616 -0.667958 10.097258 -0.193298 -1.342498 11.742182 -0.209366 -1.340092 5.679285 11.915317 -2.060280 2.735472 -14.121637 -1.582778 -6.836989 -61.185852 -8.250280 -59.304688 -132.227517 -52.037528 0.000001 -0.000023 0.000002 12.043313 -10.122556 -0.012330 0.000003 -0.000001 -3.006700 -5.000186 -7.999429 0.000079 -17.561000 73.178162 20.864006 -79.936484 125.890140 59.685437 -0.000010 -0.000003 0.000003 0.932032 0.327732 0.840873 0.000003 -0.000013 3.008120 -5.000156 8.000118 -0.000020 -72.041864 178.912857 10.975784 -179.999991 0.000005 -2.127995 90.703949 5.229448 -1.528842 -0.000002 -0.000000 2.626759 65.640372 7.304855 1.363515 25.456933 -7.358367 -0.000000 -70.362532 178.961680 -2.788430 -0.000005 -0.000004 -1.764091 -84.298687 -5.637878 -0.573239 -0.000002 0.000000 -1.842220 61.378395 -7.498136 -1.260611 26.866243 7.317291 -2.095456 
53.397396 15.352892 58.131702 -13.530093 0.207574 3.047909 3.046084 -0.078823 -0.672615 10.094061 -0.200063 -1.351975 11.738986 -0.216243 -1.349485 5.790867 11.939430 -2.075128 2.736223 -14.111038 -1.589947 -6.848506 -61.159570 -8.261657 -59.231756 -132.204281 -51.956679 0.000001 -0.000024 0.000001 12.040082 -10.117781 -0.013306 0.000002 -0.000002 -3.006701 -5.000185 -7.999430 0.000079 -17.475237 73.213542 20.770475 -79.948006 125.848421 59.665637 -0.000011 -0.000005 -0.000000 0.899146 0.312969 0.840789 0.000003 -0.000013 3.008120 -5.000157 8.000116 -0.000020 -72.006443 178.910467 10.955640 -179.999991 0.000005 -2.126997 90.686676 5.235165 -1.516691 -0.000003 -0.000000 2.626060 65.638630 7.304229 1.364797 25.456935 -7.358368 0.000001 -70.311497 178.979028 -2.781067 -0.000005 -0.000004 -1.765130 -84.298584 -5.634637 -0.576995 -0.000002 -0.000000 -1.840920 61.355063 -7.498550 -1.261347 26.867956 7.317237 -2.097871 
53.398296 15.360892 58.122505 -13.597685 0.195560 3.056482 3.044392 -0.082143 -0.677623 10.090468 -0.207063 -1.361892 11.735392 -0.223361 -1.359320 5.900086 11.966524 -2.088725 2.737289 -14.104231 -1.595823 -6.860274 -61.129660 -8.273075 -59.153891 -132.183599 -51.872094 0.000002 -0.000024 0.000002 12.036958 -10.113193 -0.014240 0.000003 -0.000001 -3.006700 -5.000187 -7.999430 0.000079 -17.396224 73.251299 20.684364 -79.963470 125.807139 59.648117 -0.000010 -0.000004 0.000001 0.866505 0.297398 0.840652 0.000003 -0.000013 3.008119 -5.000159 8.000118 -0.000021 -71.969464 178.908923 10.936745 -179.999991 0.000005 -2.126998 90.669873 5.240661 -1.504852 -0.000002 -0.000001 2.625050 65.636451 7.303588 1.366101 25.456930 -7.358367 0.000000 -70.261179 178.996158 -2.774851 -0.000005 -0.000004 -1.766100 -84.298768 -5.630978 -0.580387 -0.000002 0.000000 -1.839660 61.333589 -7.498965 -1.262052 26.869271 7.317170 -2.099697 
53.403595 15.375993 58.111603 -13.663973 0.183242 3.064807 3.042497 -0.085719 -0.683053 10.086570 -0.214608 -1.372385 11.731500 -0.231032 -1.369713 6.006811 11.999190 -2.100781 2.738796 -14.102019 -1.600335 -6.873228 -61.093269 -8.285370 -59.068835 -132.167507 -51.781064 0.000001 -0.000024 0.000002 12.033112 -10.108244 -0.015332 0.000005 -0.000001 -3.006700 -5.000185 -7.999431 0.000078 -17.324727 73.293961 20.606582 -79.985927 125.766418 59.634682 -0.000012 -0.000004 -0.000000 0.833996 0.280612 0.840495 0.000001 -0.000013 3.008119 -5.000157 8.000118 -0.000019 -71.930136 178.908172 10.920445 -179.999991 0.000005 -2.126998 90.653781 5.245911 -1.493142 -0.000002 -0.000001 2.623600 65.633426 7.302875 1.367651 25.456930 -7.358367 0.000001 -70.211462 179.013739 -2.770110 -0.000005 -0.000004 -1.767009 -84.298973 -5.627045 -0.583295 -0.000002 0.000000 -1.838520 61.313877 -7.499371 -1.262832 26.870173 7.317102 -2.100957 
53.413197 15.382891 58.105904 -13.729261 0.170604 3.072761 3.040403 -0.089642 -0.688919 10.082177 -0.222907 -1.383466 11.727106 -0.239464 -1.380712 6.111139 12.038723 -2.111234 2.740901 -14.104591 -1.603545 -6.888035 -61.048641 -8.299187 -58.975248 -132.157508 -51.681706 0.000002 -0.000023 0.000001 12.027709 -10.102468 -0.016742 0.000002 -0.000001 -3.006700 -5.000186 -7.999430 0.000080 -17.260930 73.343193 20.537310 -80.017046 125.726024 59.626868 -0.000010 -0.000004 0.000001 0.801898 0.262570 0.840349 0.000002 -0.000013 3.008121 -5.000157 8.000117 -0.000019 -71.888219 178.908841 10.905501 -179.999991 0.000005 -2.126001 90.638523 5.250908 -1.481374 -0.000002 -0.000000 2.621651 65.629327 7.302058 1.369546 25.456933 -7.358367 0.000000 -70.162155 179.031785 -2.765397 -0.000005 -0.000004 -1.767901 -84.299260 -5.622771 -0.585923 -0.000002 0.000000 -1.837540 61.295743 -7.499802 -1.263509 26.870675 7.317041 -2.101717 
53.403496 15.389994 58.094704 -13.793255 0.157725 3.080371 3.038127 -0.093850 -0.695170 10.077584 -0.231825 -1.395100 11.722514 -0.248521 -1.392222 6.213152 12.083721 -2.120298 2.743569 -14.111155 -1.605597 -6.904347 -60.997216 -8.314254 -58.874209 -132.153218 -51.574991 0.000001 -0.000023 0.000001 12.020957 -10.095957 -0.018421 0.000001 -0.000001 -3.006700 -5.000188 -7.999432 0.000079 -17.203705 73.397438 20.475326 -80.054974 125.685931 59.623317 -0.000011 -0.000003 -0.000000 0.770459 0.243593 0.840222 0.000002 -0.000012 3.008120 -5.000155 8.000117 -0.000020 -71.844028 178.910658 10.892107 -179.999991 0.000005 -2.125002 90.623961 5.255571 -1.469631 -0.000002 -0.000000 2.619259 65.624362 7.301168 1.371686 25.456931 -7.358367 0.000000 -70.113442 179.050295 -2.761049 -0.000005 -0.000004 -1.768771 -84.299663 -5.618181 -0.588368 -0.000002 -0.000000 -1.836721 61.279132 -7.500221 -1.264376 26.870970 7.316972 -2.102009 
53.413296 15.401792 58.084805 -13.856347 0.144679 3.087698 3.035683 -0.098279 -0.701755 10.072589 -0.241224 -1.407201 11.717523 -0.258064 -1.404206 6.312962 12.133089 -2.128209 2.746787 -14.120709 -1.606616 -6.921839 -60.940389 -8.330273 -58.767453 -132.153492 -51.462897 0.000000 -0.000023 0.000002 12.013269 -10.088993 -0.020275 0.000002 -0.000001 -3.006700 -5.000184 -7.999429 0.000079 -17.152459 73.455597 20.419955 -80.098079 125.645961 59.623180 -0.000010 -0.000004 -0.000001 0.739948 0.223993 0.840096 0.000004 -0.000013 3.008121 -5.000157 8.000118 -0.000018 -71.798197 178.913322 10.880482 -179.999991 0.000005 -2.124006 90.609986 5.259916 -1.458114 -0.000002 -0.000001 2.616511 65.618543 7.300247 1.373973 25.456935 -7.358369 0.000000 -70.065126 179.069282 -2.757462 -0.000005 -0.000004 -1.769610 -84.300230 -5.613328 -0.590442 -0.000002 0.000000 -1.836031 61.264113 -7.500670 -1.265140 26.870867 7.316905 -2.101819 
